<svg width="38" height="38" viewBox="0 0 38 38" fill="none" xmlns="http://www.w3.org/2000/svg">
<path fill-rule="evenodd" clip-rule="evenodd" d="M6.80671 20.1353C6.17712 19.5183 6.17819 18.5089 6.79417 17.8933V17.8775L16.2872 8.39098C16.9043 7.75855 17.901 7.75855 18.5339 8.39098C19.151 9.00761 19.151 10.0037 18.5339 10.6361L11.7305 17.4348H30.0845C30.9547 17.4348 31.6667 18.1305 31.6667 19.0159C31.6667 19.8855 30.9547 20.597 30.0845 20.597H11.7622L18.5479 27.3781C19.1649 27.9789 19.1649 28.9908 18.5479 29.6074H18.5321C18.2315 29.892 17.8201 30.0659 17.4087 30.0659L17.4261 30.0833C16.9989 30.0833 16.5876 29.9094 16.3028 29.6248L6.80974 20.1383C6.80873 20.1373 6.80772 20.1363 6.80671 20.1353Z" fill="#32FF00"/>
</svg>
